<svg width="465" height="465" viewBox="0 0 465 465" fill="none" xmlns="http://www.w3.org/2000/svg">
<rect width="465" height="465" fill="black"/>
<path d="M132.202 181.68V202.326H113.48V181.236L101.936 181.68V232H113.48V211.502H132.202V232H143.746V181.68H132.202ZM196.912 180.57C191.979 180.619 187.588 181.779 183.74 184.048C179.892 186.317 176.883 189.45 174.712 193.446C172.591 197.442 171.53 201.981 171.53 207.062C171.53 211.897 172.542 216.287 174.564 220.234C176.636 224.181 179.572 227.313 183.37 229.632C187.218 231.901 191.732 233.036 196.912 233.036C201.846 232.987 206.236 231.852 210.084 229.632C213.932 227.363 216.917 224.23 219.038 220.234C221.209 216.238 222.294 211.675 222.294 206.544C222.294 201.709 221.283 197.319 219.26 193.372C217.238 189.425 214.302 186.317 210.454 184.048C206.656 181.729 202.142 180.57 196.912 180.57ZM183.518 206.988C183.518 203.683 184.135 200.772 185.368 198.256C186.602 195.691 188.23 193.717 190.252 192.336C192.324 190.955 194.594 190.264 197.06 190.264C199.724 190.264 202.043 190.979 204.016 192.41C206.039 193.791 207.593 195.715 208.678 198.182C209.764 200.649 210.306 203.436 210.306 206.544C210.306 210.195 209.714 213.278 208.53 215.794C207.346 218.31 205.718 220.209 203.646 221.492C201.624 222.725 199.354 223.342 196.838 223.342C192.744 223.342 189.488 221.837 187.07 218.828C184.702 215.769 183.518 211.823 183.518 206.988ZM284.232 232H295.85V181.68H288.45L273.798 202.844L257.666 181.68H249.97V232H261.514V204.546L271.578 217.2L276.166 216.534L284.232 205.36V232ZM338.856 222.972V211.206H356.246L354.84 202.104H338.856V190.782H360.464L359.058 181.68H327.312V232H363.424L362.018 222.972H338.856ZM134.757 304H146.375V253.68H138.975L124.323 274.844L108.191 253.68H100.495V304H112.039V276.546L122.103 289.2L126.691 288.534L134.757 277.36V304ZM186.272 304L190.194 293.122H208.472L212.542 304.74L223.938 303.408L204.846 253.68H193.968L174.728 304H186.272ZM199.148 268.332L205.068 283.946H193.45L199.148 268.332ZM273.042 304C277.828 304 281.996 302.964 285.548 300.892C289.1 298.82 291.838 295.885 293.762 292.086C295.686 288.238 296.648 283.724 296.648 278.544C296.648 273.66 295.76 269.368 293.984 265.668C292.208 261.919 289.544 258.983 285.992 256.862C282.49 254.741 278.222 253.68 273.19 253.68H252.174V304H273.042ZM273.042 263.078C276.841 263.078 279.727 264.459 281.7 267.222C283.674 269.985 284.66 273.759 284.66 278.544C284.66 283.971 283.575 288.016 281.404 290.68C279.234 293.344 276.274 294.676 272.524 294.676H263.718V263.078H273.042ZM338.077 294.972V283.206H355.467L354.061 274.104H338.077V262.782H359.685L358.279 253.68H326.533V304H362.645L361.239 294.972H338.077Z" fill="white"/>
<path d="M53 208V163.524L229.536 98L409 163.524V208" stroke="#1ED9B8" stroke-width="11"/>
<path d="M53 282V341H411V282" stroke="#1ED9B8" stroke-width="11"/>
</svg>
